<svg width="24" height="25" viewBox="0 0 24 25" fill="none" xmlns="http://www.w3.org/2000/svg">
<mask id="path-1-inside-1_1223_33269" fill="white">
<path d="M12.5333 5.03333C12.5333 4.73878 12.2946 4.5 12 4.5C11.7054 4.5 11.4667 4.73878 11.4667 5.03333V7.193C11.6421 7.17558 11.82 7.16667 12 7.16667C12.18 7.16667 12.3579 7.17558 12.5333 7.193V5.03333Z"/>
<path d="M7.09739 6.84315L8.62468 8.37043C8.34889 8.59612 8.09612 8.84889 7.87043 9.12468L6.34315 7.59739C6.13487 7.38911 6.13487 7.05143 6.34315 6.84315C6.55143 6.63487 6.88911 6.63487 7.09739 6.84315Z"/>
<path d="M6.693 11.9667H4.53333C4.23878 11.9667 4 12.2054 4 12.5C4 12.7946 4.23878 13.0333 4.53333 13.0333H6.693C6.67558 12.8579 6.66667 12.68 6.66667 12.5C6.66667 12.32 6.67558 12.1421 6.693 11.9667Z"/>
<path d="M6.34315 17.4026L7.87043 15.8753C8.09612 16.1511 8.34889 16.4039 8.62468 16.6296L7.09739 18.1569C6.88911 18.3651 6.55143 18.3651 6.34315 18.1569C6.13487 17.9486 6.13487 17.6109 6.34315 17.4026Z"/>
<path d="M11.4667 17.807V19.9667C11.4667 20.2612 11.7054 20.5 12 20.5C12.2946 20.5 12.5333 20.2612 12.5333 19.9667V17.807C12.3579 17.8244 12.18 17.8333 12 17.8333C11.82 17.8333 11.6421 17.8244 11.4667 17.807Z"/>
<path d="M16.9026 18.1569L15.3753 16.6296C15.6511 16.4039 15.9039 16.1511 16.1296 15.8753L17.6569 17.4026C17.8651 17.6109 17.8651 17.9486 17.6569 18.1569C17.4486 18.3651 17.1109 18.3651 16.9026 18.1569Z"/>
<path d="M17.307 13.0333H19.4667C19.7612 13.0333 20 12.7946 20 12.5C20 12.2054 19.7612 11.9667 19.4667 11.9667H17.307C17.3244 12.1421 17.3333 12.32 17.3333 12.5C17.3333 12.68 17.3244 12.8579 17.307 13.0333Z"/>
<path d="M17.6569 7.59739L16.1296 9.12468C15.9039 8.84889 15.6511 8.59612 15.3753 8.37043L16.9026 6.84315C17.1109 6.63487 17.4486 6.63487 17.6569 6.84315C17.8651 7.05143 17.8651 7.38911 17.6569 7.59739Z"/>
<path fill-rule="evenodd" clip-rule="evenodd" d="M16.2667 12.5C16.2667 14.8564 14.3564 16.7667 12 16.7667C9.64359 16.7667 7.73333 14.8564 7.73333 12.5C7.73333 10.1436 9.64359 8.23333 12 8.23333C14.3564 8.23333 16.2667 10.1436 16.2667 12.5ZM15.2 12.5C15.2 14.2673 13.7673 15.7 12 15.7C10.2327 15.7 8.8 14.2673 8.8 12.5C8.8 10.7327 10.2327 9.3 12 9.3C13.7673 9.3 15.2 10.7327 15.2 12.5Z"/>
</mask>
<path d="M12.5333 5.03333C12.5333 4.73878 12.2946 4.5 12 4.5C11.7054 4.5 11.4667 4.73878 11.4667 5.03333V7.193C11.6421 7.17558 11.82 7.16667 12 7.16667C12.18 7.16667 12.3579 7.17558 12.5333 7.193V5.03333Z" fill="#6F737A"/>
<path d="M7.09739 6.84315L8.62468 8.37043C8.34889 8.59612 8.09612 8.84889 7.87043 9.12468L6.34315 7.59739C6.13487 7.38911 6.13487 7.05143 6.34315 6.84315C6.55143 6.63487 6.88911 6.63487 7.09739 6.84315Z" fill="#6F737A"/>
<path d="M6.693 11.9667H4.53333C4.23878 11.9667 4 12.2054 4 12.5C4 12.7946 4.23878 13.0333 4.53333 13.0333H6.693C6.67558 12.8579 6.66667 12.68 6.66667 12.5C6.66667 12.32 6.67558 12.1421 6.693 11.9667Z" fill="#6F737A"/>
<path d="M6.34315 17.4026L7.87043 15.8753C8.09612 16.1511 8.34889 16.4039 8.62468 16.6296L7.09739 18.1569C6.88911 18.3651 6.55143 18.3651 6.34315 18.1569C6.13487 17.9486 6.13487 17.6109 6.34315 17.4026Z" fill="#6F737A"/>
<path d="M11.4667 17.807V19.9667C11.4667 20.2612 11.7054 20.5 12 20.5C12.2946 20.5 12.5333 20.2612 12.5333 19.9667V17.807C12.3579 17.8244 12.18 17.8333 12 17.8333C11.82 17.8333 11.6421 17.8244 11.4667 17.807Z" fill="#6F737A"/>
<path d="M16.9026 18.1569L15.3753 16.6296C15.6511 16.4039 15.9039 16.1511 16.1296 15.8753L17.6569 17.4026C17.8651 17.6109 17.8651 17.9486 17.6569 18.1569C17.4486 18.3651 17.1109 18.3651 16.9026 18.1569Z" fill="#6F737A"/>
<path d="M17.307 13.0333H19.4667C19.7612 13.0333 20 12.7946 20 12.5C20 12.2054 19.7612 11.9667 19.4667 11.9667H17.307C17.3244 12.1421 17.3333 12.32 17.3333 12.5C17.3333 12.68 17.3244 12.8579 17.307 13.0333Z" fill="#6F737A"/>
<path d="M17.6569 7.59739L16.1296 9.12468C15.9039 8.84889 15.6511 8.59612 15.3753 8.37043L16.9026 6.84315C17.1109 6.63487 17.4486 6.63487 17.6569 6.84315C17.8651 7.05143 17.8651 7.38911 17.6569 7.59739Z" fill="#6F737A"/>
<path fill-rule="evenodd" clip-rule="evenodd" d="M16.2667 12.5C16.2667 14.8564 14.3564 16.7667 12 16.7667C9.64359 16.7667 7.73333 14.8564 7.73333 12.5C7.73333 10.1436 9.64359 8.23333 12 8.23333C14.3564 8.23333 16.2667 10.1436 16.2667 12.5ZM15.2 12.5C15.2 14.2673 13.7673 15.7 12 15.7C10.2327 15.7 8.8 14.2673 8.8 12.5C8.8 10.7327 10.2327 9.3 12 9.3C13.7673 9.3 15.2 10.7327 15.2 12.5Z" fill="#6F737A"/>
<path d="M11.4667 7.193H9.96667V8.8493L11.6149 8.68566L11.4667 7.193ZM12.5333 7.193L12.3851 8.68566L14.0333 8.8493V7.193H12.5333ZM8.62468 8.37043L9.57463 9.53128L10.8573 8.48168L9.68534 7.30977L8.62468 8.37043ZM7.09739 6.84315L6.03673 7.90381L6.03673 7.90381L7.09739 6.84315ZM7.87043 9.12468L6.80977 10.1853L7.98168 11.3573L9.03128 10.0746L7.87043 9.12468ZM6.34315 7.59739L7.40381 6.53673L7.40381 6.53673L6.34315 7.59739ZM6.34315 6.84315L7.40381 7.90381L7.40381 7.90381L6.34315 6.84315ZM6.693 11.9667L8.18566 12.1149L8.3493 10.4667H6.693V11.9667ZM6.693 13.0333V14.5333H8.3493L8.18566 12.8851L6.693 13.0333ZM7.87043 15.8753L9.03128 14.9254L7.98168 13.6427L6.80977 14.8147L7.87043 15.8753ZM6.34315 17.4026L5.28249 16.3419L5.28248 16.3419L6.34315 17.4026ZM8.62468 16.6296L9.68534 17.6902L10.8572 16.5183L9.57464 15.4687L8.62468 16.6296ZM7.09739 18.1569L8.15805 19.2175L8.15805 19.2175L7.09739 18.1569ZM6.34315 18.1569L5.28248 19.2175L5.28249 19.2175L6.34315 18.1569ZM11.4667 17.807L11.6149 16.3143L9.96667 16.1507V17.807H11.4667ZM12.5333 17.807H14.0333V16.1507L12.3851 16.3143L12.5333 17.807ZM15.3753 16.6296L14.4254 15.4687L13.1427 16.5183L14.3147 17.6902L15.3753 16.6296ZM16.1296 15.8753L17.1902 14.8147L16.0183 13.6427L14.9687 14.9254L16.1296 15.8753ZM17.307 13.0333L15.8143 12.8851L15.6507 14.5333H17.307V13.0333ZM17.307 11.9667V10.4667H15.6507L15.8143 12.1149L17.307 11.9667ZM16.1296 9.12468L14.9687 10.0746L16.0183 11.3573L17.1902 10.1853L16.1296 9.12468ZM15.3753 8.37043L14.3147 7.30977L13.1427 8.48168L14.4254 9.53128L15.3753 8.37043ZM16.9026 6.84315L17.9633 7.90381L17.9633 7.90381L16.9026 6.84315ZM12 6C11.4661 6 11.0333 5.56721 11.0333 5.03333H14.0333C14.0333 3.91035 13.123 3 12 3V6ZM12.9667 5.03333C12.9667 5.56721 12.5339 6 12 6V3C10.877 3 9.96667 3.91035 9.96667 5.03333H12.9667ZM12.9667 7.193V5.03333H9.96667V7.193H12.9667ZM12 5.66667C11.7704 5.66667 11.5431 5.67804 11.3185 5.70034L11.6149 8.68566C11.7411 8.67313 11.8696 8.66667 12 8.66667V5.66667ZM12.6815 5.70034C12.4569 5.67804 12.2296 5.66667 12 5.66667V8.66667C12.1304 8.66667 12.2589 8.67313 12.3851 8.68566L12.6815 5.70034ZM11.0333 5.03333V7.193H14.0333V5.03333H11.0333ZM9.68534 7.30977L8.15805 5.78249L6.03673 7.90381L7.56402 9.43109L9.68534 7.30977ZM9.03128 10.0746C9.19385 9.87597 9.37597 9.69385 9.57463 9.53128L7.67472 7.20958C7.3218 7.49838 6.99838 7.8218 6.70958 8.17472L9.03128 10.0746ZM5.28249 8.65805L6.80977 10.1853L8.93109 8.06402L7.40381 6.53673L5.28249 8.65805ZM5.28249 5.78249C4.48842 6.57655 4.48842 7.86399 5.28249 8.65805L7.40381 6.53673C7.78131 6.91424 7.78131 7.5263 7.40381 7.90381L5.28249 5.78249ZM8.15805 5.78249C7.36399 4.98842 6.07655 4.98842 5.28249 5.78249L7.40381 7.90381C7.0263 8.28131 6.41424 8.28131 6.03673 7.90381L8.15805 5.78249ZM4.53333 13.4667H6.693V10.4667H4.53333V13.4667ZM5.5 12.5C5.5 13.0339 5.06721 13.4667 4.53333 13.4667V10.4667C3.41035 10.4667 2.5 11.377 2.5 12.5H5.5ZM4.53333 11.5333C5.06721 11.5333 5.5 11.9661 5.5 12.5H2.5C2.5 13.623 3.41035 14.5333 4.53333 14.5333V11.5333ZM6.693 11.5333H4.53333V14.5333H6.693V11.5333ZM5.16667 12.5C5.16667 12.7296 5.17804 12.9569 5.20034 13.1815L8.18566 12.8851C8.17313 12.7589 8.16667 12.6304 8.16667 12.5H5.16667ZM5.20034 11.8185C5.17804 12.0431 5.16667 12.2704 5.16667 12.5H8.16667C8.16667 12.3696 8.17313 12.2411 8.18566 12.1149L5.20034 11.8185ZM6.80977 14.8147L5.28249 16.3419L7.40381 18.4633L8.93109 16.936L6.80977 14.8147ZM9.57464 15.4687C9.37597 15.3061 9.19385 15.124 9.03128 14.9254L6.70957 16.8253C6.99838 17.1782 7.3218 17.5016 7.67472 17.7904L9.57464 15.4687ZM8.15805 19.2175L9.68534 17.6902L7.56402 15.5689L6.03673 17.0962L8.15805 19.2175ZM5.28249 19.2175C6.07655 20.0116 7.36399 20.0116 8.15805 19.2175L6.03673 17.0962C6.41424 16.7187 7.0263 16.7187 7.40381 17.0962L5.28249 19.2175ZM5.28248 16.3419C4.48842 17.136 4.48842 18.4234 5.28248 19.2175L7.40381 17.0962C7.78131 17.4737 7.78131 18.0858 7.40381 18.4633L5.28248 16.3419ZM12.9667 19.9667V17.807H9.96667V19.9667H12.9667ZM12 19C12.5339 19 12.9667 19.4328 12.9667 19.9667H9.96667C9.96667 21.0896 10.877 22 12 22V19ZM11.0333 19.9667C11.0333 19.4328 11.4661 19 12 19V22C13.123 22 14.0333 21.0896 14.0333 19.9667H11.0333ZM11.0333 17.807V19.9667H14.0333V17.807H11.0333ZM12 19.3333C12.2296 19.3333 12.4569 19.322 12.6815 19.2997L12.3851 16.3143C12.2589 16.3269 12.1304 16.3333 12 16.3333V19.3333ZM11.3185 19.2997C11.5431 19.322 11.7704 19.3333 12 19.3333V16.3333C11.8696 16.3333 11.7411 16.3269 11.6149 16.3143L11.3185 19.2997ZM14.3147 17.6902L15.8419 19.2175L17.9633 17.0962L16.436 15.5689L14.3147 17.6902ZM14.9687 14.9254C14.8061 15.124 14.624 15.3061 14.4254 15.4687L16.3253 17.7904C16.6782 17.5016 17.0016 17.1782 17.2904 16.8253L14.9687 14.9254ZM18.7175 16.3419L17.1902 14.8147L15.0689 16.936L16.5962 18.4633L18.7175 16.3419ZM18.7175 19.2175C19.5116 18.4234 19.5116 17.136 18.7175 16.3419L16.5962 18.4633C16.2187 18.0858 16.2187 17.4737 16.5962 17.0962L18.7175 19.2175ZM15.8419 19.2175C16.636 20.0116 17.9234 20.0116 18.7175 19.2175L16.5962 17.0962C16.9737 16.7187 17.5858 16.7187 17.9633 17.0962L15.8419 19.2175ZM19.4667 11.5333H17.307V14.5333H19.4667V11.5333ZM18.5 12.5C18.5 11.9661 18.9328 11.5333 19.4667 11.5333V14.5333C20.5896 14.5333 21.5 13.623 21.5 12.5H18.5ZM19.4667 13.4667C18.9328 13.4667 18.5 13.0339 18.5 12.5H21.5C21.5 11.377 20.5896 10.4667 19.4667 10.4667V13.4667ZM17.307 13.4667H19.4667V10.4667H17.307V13.4667ZM18.8333 12.5C18.8333 12.2704 18.822 12.0431 18.7997 11.8185L15.8143 12.1149C15.8269 12.2411 15.8333 12.3696 15.8333 12.5H18.8333ZM18.7997 13.1815C18.822 12.9569 18.8333 12.7296 18.8333 12.5H15.8333C15.8333 12.6304 15.8269 12.7589 15.8143 12.8851L18.7997 13.1815ZM17.1902 10.1853L18.7175 8.65805L16.5962 6.53673L15.0689 8.06402L17.1902 10.1853ZM14.4254 9.53128C14.624 9.69385 14.8061 9.87597 14.9687 10.0746L17.2904 8.17472C17.0016 7.8218 16.6782 7.49838 16.3253 7.20957L14.4254 9.53128ZM15.8419 5.78249L14.3147 7.30977L16.436 9.43109L17.9633 7.90381L15.8419 5.78249ZM18.7175 5.78249C17.9234 4.98842 16.636 4.98842 15.8419 5.78249L17.9633 7.90381C17.5858 8.28131 16.9737 8.28131 16.5962 7.90381L18.7175 5.78249ZM18.7175 8.65805C19.5116 7.86399 19.5116 6.57655 18.7175 5.78249L16.5962 7.90381C16.2187 7.5263 16.2187 6.91424 16.5962 6.53673L18.7175 8.65805ZM12 17.2C14.5957 17.2 16.7 15.0957 16.7 12.5H13.7C13.7 13.4389 12.9389 14.2 12 14.2V17.2ZM7.3 12.5C7.3 15.0957 9.40426 17.2 12 17.2V14.2C11.0611 14.2 10.3 13.4389 10.3 12.5H7.3ZM12 7.8C9.40426 7.8 7.3 9.90426 7.3 12.5H10.3C10.3 11.5611 11.0611 10.8 12 10.8V7.8ZM16.7 12.5C16.7 9.90426 14.5957 7.8 12 7.8V10.8C12.9389 10.8 13.7 11.5611 13.7 12.5H16.7ZM12 18.2667C15.1848 18.2667 17.7667 15.6848 17.7667 12.5H14.7667C14.7667 14.028 13.528 15.2667 12 15.2667V18.2667ZM6.23333 12.5C6.23333 15.6848 8.81516 18.2667 12 18.2667V15.2667C10.472 15.2667 9.23333 14.028 9.23333 12.5H6.23333ZM12 6.73333C8.81516 6.73333 6.23333 9.31516 6.23333 12.5H9.23333C9.23333 10.972 10.472 9.73333 12 9.73333V6.73333ZM17.7667 12.5C17.7667 9.31516 15.1848 6.73333 12 6.73333V9.73333C13.528 9.73333 14.7667 10.972 14.7667 12.5H17.7667Z" fill="#6F737A" mask="url(#path-1-inside-1_1223_33269)"/>
</svg>
