<svg width="16" height="16" viewBox="0 0 16 16" fill="none" xmlns="http://www.w3.org/2000/svg">
<path d="M10.5293 8.78947V7.0163C10.5293 6.33451 9.69322 6.00638 9.2295 6.50619C9.10081 6.64489 9.0293 6.8271 9.0293 7.0163V7.49847M9.0293 8.2254V6.70345C9.0293 6.17838 8.51226 5.80951 8.01576 5.98037C7.7071 6.08659 7.49988 6.37703 7.49988 6.70345V7.49847M10.5293 8.26316V7.74219C10.5293 7.4237 10.7305 7.13995 11.031 7.0345C11.5187 6.86336 12.0293 7.22531 12.0293 7.7422V10.8443C12.0293 11.7587 11.288 12.5 10.3736 12.5H7.35621C6.63732 12.5 5.94676 12.2198 5.43119 11.7188L3.90057 10.2314C3.66209 9.99971 3.6015 9.64005 3.75091 9.34298C3.91306 9.02057 4.27922 8.85622 4.62788 8.94934L5.99988 9.31578V3.75C5.99988 3.33579 6.33567 3 6.74988 3C7.16409 3 7.49988 3.33579 7.49988 3.75V6.68421" stroke="#617D8A" stroke-linecap="round" stroke-linejoin="round"/>
<path d="M4.5 1.5H1.5V4.5" stroke="#617D8A" stroke-linecap="round" stroke-linejoin="round"/>
<path d="M11.5 14.5H14.5V11.5" stroke="#617D8A" stroke-linecap="round" stroke-linejoin="round"/>
<path d="M14.5 4.5V1.5H11.5" stroke="#617D8A" stroke-linecap="round" stroke-linejoin="round"/>
<path d="M1.5 11.5V14.5H4.5" stroke="#617D8A" stroke-linecap="round" stroke-linejoin="round"/>
</svg>
