<svg width="24" height="24" viewBox="0 0 24 24" fill="none" xmlns="http://www.w3.org/2000/svg">
<path d="M7.5 3H3V7.5" stroke="#6F737A" stroke-width="1.5" stroke-linecap="round" stroke-linejoin="round"/>
<path d="M16.5 21L21 21L21 16.5" stroke="#6F737A" stroke-width="1.5" stroke-linecap="round" stroke-linejoin="round"/>
<path d="M21 7.5L21 3L16.5 3" stroke="#6F737A" stroke-width="1.5" stroke-linecap="round" stroke-linejoin="round"/>
<path d="M3 16.5L3 21L7.5 21" stroke="#6F737A" stroke-width="1.5" stroke-linecap="round" stroke-linejoin="round"/>
<path d="M15.1782 11.7862V7.12479C15.1782 6.55269 14.7144 6.08892 14.1424 6.08892V6.08892C13.5703 6.08892 13.1065 6.55269 13.1065 7.12479V9.19652M13.1065 10.2324V5.57099C13.1065 4.9989 12.6427 4.53512 12.0706 4.53512V4.53512C11.4985 4.53512 11.0348 4.9989 11.0348 5.57099V10.2324M15.1782 11.2682V8.67858C15.1782 8.10649 15.642 7.64272 16.2141 7.64272V7.64272C16.7862 7.64272 17.25 8.10649 17.25 8.67858V14.8938C17.25 16.6101 15.8586 18.0014 14.1424 18.0014H12.1068C11.0832 18.0014 10.0958 17.6225 9.335 16.9377L5.99764 13.9341C5.61859 13.593 5.54727 13.0253 5.83015 12.601V12.601C6.13425 12.1449 6.74301 12.008 7.21311 12.29L8.96303 13.34V7.12479C8.96303 6.55269 9.4268 6.08892 9.9989 6.08892V6.08892C10.571 6.08892 11.0348 6.55269 11.0348 7.12479V9.19652" stroke="#6F737A" stroke-width="1.5" stroke-linecap="round" stroke-linejoin="round"/>
</svg>
