<svg width="24" height="24" viewBox="0 0 24 24" fill="none" xmlns="http://www.w3.org/2000/svg">
<path d="M6.75 2.25H2.25V6.75" stroke="#6F737A" stroke-width="1.5" stroke-linecap="round" stroke-linejoin="round"/>
<path d="M17.25 21.75L21.75 21.75L21.75 17.25" stroke="#6F737A" stroke-width="1.5" stroke-linecap="round" stroke-linejoin="round"/>
<path d="M21.75 6.75L21.75 2.25L17.25 2.25" stroke="#6F737A" stroke-width="1.5" stroke-linecap="round" stroke-linejoin="round"/>
<path d="M2.25 17.25L2.25 21.75L6.75 21.75" stroke="#6F737A" stroke-width="1.5" stroke-linecap="round" stroke-linejoin="round"/>
<path d="M12.75 12C12.75 12.4142 12.4142 12.75 12 12.75C11.5858 12.75 11.25 12.4142 11.25 12C11.25 11.5858 11.5858 11.25 12 11.25C12.4142 11.25 12.75 11.5858 12.75 12Z" stroke="#6F737A" stroke-width="1.5"/>
<path d="M7.75697 14.5561C6.6145 13.8706 5.74972 12.9669 5.31067 12C5.74972 11.0331 6.6145 10.1294 7.75697 9.44389C8.99559 8.70071 10.5038 8.24998 12 8.24998C13.4962 8.24998 15.0044 8.70071 16.243 9.44389C17.3855 10.1294 18.2503 11.0331 18.6893 12C18.2503 12.9669 17.3855 13.8706 16.243 14.5561C15.0044 15.2993 13.4962 15.75 12 15.75C10.5038 15.75 8.99559 15.2993 7.75697 14.5561Z" stroke="#6F737A" stroke-width="1.5"/>
</svg>
