<svg width="16" height="16" viewBox="0 0 16 16" fill="none" xmlns="http://www.w3.org/2000/svg">
<path d="M7 12.5C10.0376 12.5 12.5 10.0376 12.5 7C12.5 3.96243 10.0376 1.5 7 1.5C3.96243 1.5 1.5 3.96243 1.5 7C1.5 10.0376 3.96243 12.5 7 12.5Z" stroke="#617D8A"/>
<path d="M11 11L14.5 14.5" stroke="#617D8A" stroke-linecap="round"/>
<path d="M8.00005 4.5C8.00005 4.22386 7.77619 4 7.50005 4L4 4.00002L4.00005 7.5C4.00005 7.77614 4.22391 8 4.50005 8C4.77619 8 5.00005 7.77614 5.00005 7.5V5.70708L8.29292 9H6.50005C6.22391 9 6.00005 9.22386 6.00005 9.5C6.00005 9.77614 6.22391 10 6.50005 10H10L10.0001 6.5C10.0001 6.22386 9.77619 6 9.50005 6C9.22391 6 9.00005 6.22386 9.00005 6.5V8.29292L5.70718 5H7.50005C7.77619 5 8.00005 4.77614 8.00005 4.5Z" fill="#617D8A"/>
</svg>
