<svg width="24" height="24" viewBox="0 0 24 24" fill="none" xmlns="http://www.w3.org/2000/svg">
<rect x="7.5" y="12" width="6" height="1.5" fill="#6F737A"/>
<rect x="7.5" y="9" width="1.5" height="1.5" fill="#6F737A"/>
<rect x="6" y="6" width="1.5" height="1.5" fill="#6F737A"/>
<rect x="9" y="6" width="1.5" height="1.5" fill="#6F737A"/>
<rect x="10.5" y="9" width="1.5" height="1.5" fill="#6F737A"/>
<rect x="12" y="6" width="1.5" height="1.5" fill="#6F737A"/>
<rect x="15" y="6" width="1.5" height="1.5" fill="#6F737A"/>
<rect x="13.5" y="9" width="1.5" height="1.5" fill="#6F737A"/>
<path fill-rule="evenodd" clip-rule="evenodd" d="M18 4.5H4.5C3.67157 4.5 3 5.17157 3 6V13.5C3 14.3284 3.67157 15 4.5 15H13.5V16.5H4.5C2.84315 16.5 1.5 15.1569 1.5 13.5V6C1.5 4.34315 2.84315 3 4.5 3H18C19.6569 3 21 4.34315 21 6V10.5H19.5V6C19.5 5.17157 18.8284 4.5 18 4.5Z" fill="#6F737A"/>
<path fill-rule="evenodd" clip-rule="evenodd" d="M16.5 19.5V13.5L18 13.5V16.5H19.5V13.5H21V19.5C21 20.0334 20.3223 21 18.75 21C17.1777 21 16.5 20.0334 16.5 19.5ZM16.5 12C15.6716 12 15 12.6716 15 13.5V19.5C15 21.1569 16.6789 22.5 18.75 22.5C20.8211 22.5 22.5 21.1569 22.5 19.5V13.5C22.5 12.6716 21.8284 12 21 12H16.5Z" fill="#6F737A"/>
</svg>
