<svg width="24" height="24" viewBox="0 0 24 24" fill="none" xmlns="http://www.w3.org/2000/svg">
<path d="M12 5.25V18.75" stroke="#6F737A" stroke-width="1.5" stroke-linecap="round"/>
<path d="M18.7496 12L5.24963 12" stroke="#6F737A" stroke-width="1.5" stroke-linecap="round"/>
<path fill-rule="evenodd" clip-rule="evenodd" d="M9.21863 5.91983C8.9351 6.22179 8.95004 6.69643 9.25201 6.97996C9.55397 7.26349 10.0286 7.24855 10.3121 6.94658L11.9892 5.16047L13.6913 6.95008C13.9767 7.25022 14.4515 7.26212 14.7516 6.97666C15.0517 6.6912 15.0636 6.21647 14.7782 5.91633L12.5292 3.55165L11.9822 2.97656L11.4389 3.55514L9.21863 5.91983ZM14.7816 18.0794C15.0651 17.7774 15.0502 17.3028 14.7482 17.0193C14.4462 16.7357 13.9716 16.7507 13.6881 17.0526L12.011 18.8388L10.3089 17.0492C10.0235 16.749 9.54874 16.7371 9.2486 17.0226C8.94846 17.308 8.93656 17.7828 9.22202 18.0829L11.471 20.4476L12.018 21.0227L12.5613 20.4441L14.7816 18.0794Z" fill="#6F737A"/>
<path fill-rule="evenodd" clip-rule="evenodd" d="M18.0811 9.20324C17.7792 8.91971 17.3045 8.93466 17.021 9.23662C16.7375 9.53859 16.7524 10.0132 17.0544 10.2968L18.8405 11.9738L17.0509 13.6759C16.7508 13.9614 16.7389 14.4361 17.0243 14.7362C17.3098 15.0364 17.7845 15.0483 18.0846 14.7628L20.4493 12.5138L21.0244 11.9668L20.4458 11.4236L18.0811 9.20324ZM5.91864 14.7675C6.22061 15.051 6.69525 15.0361 6.97878 14.7341C7.26231 14.4321 7.24736 13.9575 6.9454 13.674L5.15929 11.9969L6.9489 10.2948C7.24904 10.0094 7.26094 9.53464 6.97548 9.2345C6.69001 8.93436 6.21529 8.92246 5.91515 9.20792L3.55046 11.4569L2.97538 12.0039L3.55396 12.5472L5.91864 14.7675Z" fill="#6F737A"/>
</svg>
